<svg width="30" height="31" viewBox="0 0 30 31" fill="none" xmlns="http://www.w3.org/2000/svg">
<mask id="mask0" mask-type="alpha" maskUnits="userSpaceOnUse" x="0" y="1" width="30" height="30">
<path fill-rule="evenodd" clip-rule="evenodd" d="M0 1L29.6875 1L29.6875 30.6875L0 30.6875L0 1Z" fill="white"/>
</mask>
<g mask="url(#mask0)">
<path d="M26.5625 26C26.5625 27.7187 25.1562 29.125 23.4375 29.125L6.25 29.125C4.53125 29.125 3.125 27.7188 3.125 26L3.125 12.7188C3.125 11 4.53125 9.59375 6.25 9.59375L23.4375 9.59375C25.1562 9.59375 26.5625 11 26.5625 12.7187L26.5625 26Z" fill="#FDD888"/>
<path d="M28.9062 10.375C28.9062 12.0937 27.5 13.5 25.7812 13.5L3.90625 13.5C2.1875 13.5 0.78125 12.0938 0.78125 10.375C0.78125 8.65625 2.1875 7.25 3.90625 7.25L25.7812 7.25C27.5 7.25 28.9062 8.65625 28.9062 10.375Z" fill="#FDD888"/>
<path d="M26.5625 15.0625L3.125 15.0625V13.5L26.5625 13.5V15.0625Z" fill="#FCAB40"/>
<path d="M15.625 4.12537H14.0625C12.7687 4.12537 11.7187 5.17459 11.7187 6.46912L11.7188 29.1254H17.9688L17.9687 6.46912C17.9687 5.17459 16.9195 4.12537 15.625 4.12537Z" fill="#DA2F47"/>
<path d="M13.2812 7.25C14.1406 7.25 14.268 6.84688 13.5633 6.35391L8.31171 2.67734C7.60703 2.18438 6.68281 2.39141 6.25625 3.1375L4.68125 5.89375C4.25468 6.63984 4.60937 7.25 5.46875 7.25L13.2812 7.25Z" fill="#DA2F47"/>
<path d="M16.4063 7.25C15.5469 7.25 15.4195 6.84688 16.1242 6.35391L21.3758 2.67734C22.0805 2.18438 23.0047 2.39141 23.4313 3.1375L25.0063 5.89375C25.4328 6.63984 25.0781 7.25 24.2188 7.25L16.4063 7.25Z" fill="#DA2F47"/>
</g>
</svg>
