<svg width="21" height="20" viewBox="0 0 21 20" fill="none" xmlns="http://www.w3.org/2000/svg">
<path fill-rule="evenodd" clip-rule="evenodd" d="M0 10C0 15.5 4.50375 20 10.0083 20C15.5129 20 20.0167 15.5 20.0167 10C20.0167 4.5 15.5129 0 10.0083 0C4.50375 0 0 4.5 0 10ZM1.66806 10C1.66806 5.41667 5.42118 1.66667 10.0083 1.66667C14.5955 1.66667 18.3486 5.41667 18.3486 10C18.3486 14.5833 14.5955 18.3333 10.0083 18.3333C5.42118 18.3333 1.66806 14.5833 1.66806 10Z" fill="#474747"/>
<path d="M10.0079 10.8333C9.50744 10.8333 9.17383 10.5 9.17383 10V4.16667C9.17383 3.66667 9.50744 3.33334 10.0079 3.33334C10.5083 3.33334 10.8419 3.66667 10.8419 4.16667V10C10.8419 10.5 10.5083 10.8333 10.0079 10.8333Z" fill="#474747"/>
<path d="M13.344 14.1667C13.0938 14.1667 12.927 14.0833 12.7601 13.9167L9.42404 10.5833C9.09043 10.25 9.09043 9.75 9.42404 9.41666C9.75765 9.08333 10.2581 9.08333 10.5917 9.41666L13.9278 12.75C14.2614 13.0833 14.2614 13.5833 13.9278 13.9167C13.761 14.0833 13.5942 14.1667 13.344 14.1667Z" fill="#474747"/>
</svg>
