<svg width="30" height="22" viewBox="0 0 30 22" fill="none" xmlns="http://www.w3.org/2000/svg">
<path d="M25.5225 5.66083H19.3396V16.8671H29.4698V11.8232L28.2884 7.73989C27.9322 6.50855 26.8044 5.66083 25.5225 5.66083Z" fill="#E30000"/>
<path d="M27.991 11.7714L26.9381 8.13162C26.7566 7.50595 26.1746 7.06805 25.5227 7.06805H20.7471V11.7714H27.991Z" fill="#84DBFF"/>
<path d="M27.9921 11.7696H20.7444V7.06622L27.9921 11.7696Z" fill="#CDD6E0"/>
<path d="M27.991 11.7714L26.9381 8.13162C26.7566 7.50595 26.1746 7.06805 25.5227 7.06805H20.7471L27.991 11.7714Z" fill="#F2F2F2"/>
<path d="M1.87135 0.0349121H17.4684C18.5013 0.0349121 19.3397 0.872631 19.3397 1.90626V16.8664H0V1.90626C0 0.87269 0.837719 0.0349121 1.87135 0.0349121Z" fill="#34957C"/>
<path d="M12.6751 0.0380859V4.98276L11.9515 4.2592L11.193 5.01774L10.4351 4.2592L9.67725 5.01774L8.91807 4.2592L8.15024 5.01774L7.39293 4.2592L6.66064 4.99154V0.0380859H12.6751Z" fill="#F2F2F2"/>
<path d="M29.944 16.8658V18.9804H0.00244141V16.8658H3.12759C3.85741 15.5558 5.26092 14.67 6.87028 14.67C8.47338 14.67 9.87689 15.5558 10.613 16.8658H20.6683C21.3982 15.5558 22.7948 14.67 24.4042 14.67C26.0136 14.67 27.4108 15.5558 28.1469 16.8658H29.944Z" fill="#A3A3A3"/>
<path d="M27.3928 18.9673C27.3928 20.6178 26.0548 21.9558 24.4043 21.9558C22.7538 21.9558 21.417 20.6178 21.417 18.9673C21.417 17.3168 22.7544 15.9788 24.4043 15.9788C26.0555 15.9788 27.3928 17.3168 27.3928 18.9673Z" fill="#494949"/>
<path d="M25.6057 18.9673C25.6057 19.6304 25.068 20.1675 24.4055 20.1675C23.7424 20.1675 23.2041 19.6304 23.2041 18.9673C23.2041 18.3042 23.7418 17.7672 24.4055 17.7672C25.068 17.7666 25.6057 18.3043 25.6057 18.9673Z" fill="#ACB3BA"/>
<path d="M9.85647 18.9673C9.85647 20.6178 8.51782 21.9558 6.86793 21.9558C5.21741 21.9558 3.87939 20.6178 3.87939 18.9673C3.87939 17.3168 5.21741 15.9788 6.86793 15.9788C8.51782 15.9788 9.85647 17.3168 9.85647 18.9673Z" fill="#494949"/>
<path d="M8.06793 18.9673C8.06793 19.6304 7.53085 20.1675 6.86775 20.1675C6.20465 20.1675 5.66699 19.6304 5.66699 18.9673C5.66699 18.3042 6.20471 17.7672 6.86775 17.7672C7.53079 17.7672 8.06793 18.3043 8.06793 18.9673Z" fill="#ACB3BA"/>
</svg>
