<svg width="20" height="20" viewBox="0 0 20 20" fill="none" xmlns="http://www.w3.org/2000/svg">
<path fill-rule="evenodd" clip-rule="evenodd" d="M12.4627 18.7497C13.1239 19.1274 13.8725 19.326 14.6342 19.3255C15.7825 19.3278 16.8849 18.8749 17.6995 18.0662L18.7252 17.0414C19.5266 16.2387 19.5266 14.9393 18.7252 14.1365L16.5599 11.9738C15.907 11.3241 14.9017 11.1864 14.0979 11.6365H14.0972L12.6546 12.449C12.5682 12.4971 12.4603 12.4822 12.3903 12.4124L7.57315 7.59931C7.50363 7.52941 7.48872 7.42203 7.53656 7.33586L8.34966 5.8931C8.8002 5.08992 8.66239 4.0855 8.01213 3.4331L5.84826 1.27103C5.04518 0.469521 3.74409 0.469521 2.94101 1.27103L1.9595 2.25172C0.551849 3.6553 0.282509 5.83667 1.30655 7.54L1.79937 8.36C4.37901 12.6496 8.01608 16.207 12.3633 18.6924L12.4627 18.7497ZM3.917 2.24621C4.04368 2.11969 4.21552 2.04872 4.39464 2.04896C4.57376 2.04865 4.74564 2.11962 4.87228 2.24621L7.03546 4.40758C7.24877 4.62209 7.2941 4.95182 7.14658 5.21586L6.33349 6.65862C5.98286 7.28398 6.09023 8.0659 6.59647 8.57379L11.4136 13.3869C11.9223 13.8924 12.7049 13.9996 13.331 13.6497L14.7743 12.8372C15.0384 12.6891 15.3689 12.7345 15.5833 12.9483L17.7485 15.111C18.0122 15.3747 18.0122 15.8019 17.7485 16.0655L16.7228 17.0903C15.7827 18.0283 14.3132 18.2179 13.1502 17.5538L13.0508 17.4965C8.90799 15.1282 5.44199 11.7382 2.98381 7.65034L2.49098 6.83034C1.79333 5.66973 1.97666 4.18351 2.93549 3.2269L3.917 2.24621Z" fill="#474747"/>
</svg>
