<svg width="15" height="15" viewBox="0 0 15 15" fill="none" xmlns="http://www.w3.org/2000/svg">
<path d="M8.82209 7.50211L14.7141 1.60983C14.9575 1.37474 15.0551 1.02662 14.9695 0.699251C14.8838 0.371885 14.6281 0.116227 14.3007 0.0305389C13.9734 -0.055149 13.6253 0.0424682 13.3902 0.285871L7.49789 6.17791L1.60585 0.285871C1.23908 -0.0728451 0.651939 -0.0696116 0.289141 0.293123C-0.0736578 0.655857 -0.0769951 1.243 0.281656 1.60983L6.17393 7.50211L0.281656 13.3944C0.0407214 13.63 -0.0549888 13.977 0.0310504 14.3028C0.11709 14.6287 0.371602 14.8831 0.697462 14.9691C1.02332 15.0551 1.37025 14.9593 1.60585 14.7183L7.49789 8.8263L13.3902 14.7183C13.573 14.9012 13.8127 14.9927 14.0521 14.9927C14.2916 14.9927 14.5315 14.9012 14.7141 14.7183C15.0797 14.3527 15.0797 13.76 14.7141 13.3944L8.82209 7.50211Z" fill="#C0C0C0"/>
</svg>
